# xmcd
#
# Track frame offsets:
# 150
# 31290
# 58765
# 69842
# 83332
# 116972
# 126675
# 137190
# 150872
# 162262
# 172200
# 182337
# 191317
# 204472
#
# Disc length: 2993 seconds
#
#
# Revision: 0
# Processed by: cddbd v1.5.1PL2 Copyright (c) Steve Scherf et al.
# Submitted via: FreeRIP 2.944 
#
DISCID=bb0baf0e
DTITLE=r&b roots - swing collection
DYEAR=1900
DGENRE=samba rock
TTITLE0=hard work
TTITLE1=ogd
TTITLE2=the phianista
TTITLE3=shake,rattle and roll
TTITLE4=your hits and mine
TTITLE5=5 months,2 weeks,2 days
TTITLE6=ain't got no home
TTITLE7=rockhouse
TTITLE8=dang me
TTITLE9=come back to me
TTITLE10=bigelow 6-200
TTITLE11=my boy lollipop
TTITLE12=(your love keeps lifting me)higher and higher
TTITLE13=junco partner
EXTD=
EXTT0=john handy
EXTT1=jimmy smith and wes montgomery
EXTT2=floyd crammer
EXTT3=joe turner
EXTT4=chubby checker and bobby rydell
EXTT5=louis prima
EXTT6=clarence "frogman" henry
EXTT7=ray charles
EXTT8=jhonny rivers
EXTT9=jackie wilson
EXTT10=brenda lee
EXTT11=millie small
EXTT12=jackie wilson
EXTT13=doctor john
PLAYORDER=
